<svg width="37" height="38" viewBox="0 0 37 38" fill="none" xmlns="http://www.w3.org/2000/svg">
<path d="M0.910413 20.8626L16.3011 36.3784C17.515 37.6021 19.4837 37.6021 20.6976 36.3784C21.9115 35.1546 21.9115 33.1699 20.6976 31.9462L7.5066 18.6481L20.6976 5.35002C21.9115 4.12628 21.9115 2.14155 20.6976 0.917807C19.4837 -0.305936 17.515 -0.305937 16.3011 0.917807L0.910414 16.4335C-0.303473 17.6542 -0.303473 19.6389 0.910413 20.8626ZM19.416 21.8022L31.6349 34.785C32.8627 36.0879 34.8514 36.0879 36.0792 34.785C37.3069 33.4821 37.3069 31.3685 36.0792 30.064L26.0816 19.4417L36.0792 8.81935C37.307 7.51637 37.307 5.40128 36.0792 4.0983C34.8514 2.79533 32.8627 2.79533 31.6349 4.0983L19.416 17.0811C18.1882 18.3841 18.1882 20.4977 19.416 21.8022Z" fill="#7DFFD1"/>
</svg>
