<svg id="圖層_1" data-name="圖層 1" xmlns="http://www.w3.org/2000/svg" viewBox="0 0 141.73 141.73"><defs><style>.cls-1,.cls-2{fill:#232323;}.cls-2{font-size:19.79px;font-family:TwCenMT-Regular, Tw Cen MT;}</style></defs><title>logo</title><path class="cls-1" d="M124.16,77.36a57.33,57.33,0,0,1-75.58,47.51A57.32,57.32,0,0,1,74.28,13.78a57.8,57.8,0,0,1,48.25,41.79,57,57,0,0,1,1.62,8.29c.09.79,1.34.8,1.25,0a58.56,58.56,0,1,0-108.92,36,58.58,58.58,0,0,0,107.33-14,60.93,60.93,0,0,0,1.6-8.48c.09-.79-1.16-.79-1.25,0Z"/><text class="cls-2" transform="translate(58.48 74.68)">ShootShot</text><circle class="cls-1" cx="111.99" cy="33.23" r="4.8"/></svg>