<svg width="36" height="36" viewBox="0 0 36 36" fill="none" xmlns="http://www.w3.org/2000/svg">
<g clip-path="url(#clip0)">
<path d="M36.1015 17.2718C35.9939 12.5622 34.0576 8.17344 30.6501 4.91406C27.2473 1.65963 22.7787 -0.083637 18.0685 0.00342998C13.3566 -0.0847356 8.88958 1.65963 5.48706 4.91406C2.07931 8.17344 0.143308 12.5622 0.0354314 17.2715L0.0351562 17.2864V17.3012C0.0599238 22.1006 2.11894 26.6638 5.69373 29.8619V34.2133C5.69373 35.0579 6.28458 35.7934 7.09833 35.9626C7.21886 35.9876 7.34023 36.0003 7.46104 36.0003C7.78852 36.0003 8.1105 35.9088 8.39395 35.7322L11.898 33.5473C13.8742 34.2381 15.9362 34.588 18.0327 34.588H18.0591C18.1752 34.5902 18.29 34.5913 18.4058 34.5913C22.9925 34.591 27.3288 32.8538 30.6501 29.6773C34.0576 26.418 35.9939 22.0292 36.1015 17.3199L36.102 17.2957L36.1015 17.2718ZM29.1864 28.153C26.1856 31.0232 22.2445 32.5588 18.0894 32.4769L18.0778 32.4767H18.0663C16.1165 32.4811 14.1976 32.1424 12.3656 31.472C11.9126 31.3063 11.4192 31.3569 11.0116 31.6109L7.80916 33.6074V29.6048C7.80916 29.1582 7.6146 28.7333 7.27528 28.4392C4.04421 25.6357 2.177 21.5779 2.15086 17.305C2.24938 13.1637 3.95339 9.30531 6.95082 6.43842C9.95128 3.56851 13.8935 2.03344 18.0475 2.11474L18.0685 2.11501L18.0894 2.11474C22.2437 2.03426 26.1856 3.56851 29.1864 6.43842C32.181 9.30284 33.8851 13.1582 33.986 17.2957C33.8851 21.4334 32.181 25.2886 29.1864 28.153Z" fill="#7DFFD1"/>
<path d="M25.8184 12.2537H10.3188C9.73484 12.2537 9.26123 12.7261 9.26123 13.3092C9.26123 13.8923 9.73484 14.365 10.3188 14.365H25.8184C26.4026 14.365 26.8762 13.8923 26.8762 13.3092C26.8762 12.7261 26.4026 12.2537 25.8184 12.2537Z" fill="#7DFFD1"/>
<path d="M25.8184 16.9233H10.3188C9.73484 16.9233 9.26123 17.396 9.26123 17.9789C9.26123 18.562 9.73484 19.0346 10.3188 19.0346H25.8184C26.4026 19.0346 26.8762 18.562 26.8762 17.9789C26.8762 17.396 26.4026 16.9233 25.8184 16.9233Z" fill="#7DFFD1"/>
<path d="M25.8184 21.5933H18.1977C17.6137 21.5933 17.1401 22.066 17.1401 22.6491C17.1401 23.2319 17.6137 23.7046 18.1977 23.7046H25.8184C26.4027 23.7046 26.8763 23.2319 26.8763 22.6491C26.8763 22.066 26.4027 21.5933 25.8184 21.5933Z" fill="#7DFFD1"/>
</g>
<defs>
<clipPath id="clip0">
<rect width="36" height="36" fill="white"/>
</clipPath>
</defs>
</svg>
