<?xml version="1.0" encoding="utf-8"?>
<!-- Generator: Adobe Illustrator 25.1.0, SVG Export Plug-In . SVG Version: 6.00 Build 0)  -->
<svg version="1.1" id="Capa_1" xmlns="http://www.w3.org/2000/svg" xmlns:xlink="http://www.w3.org/1999/xlink" x="0px" y="0px"
	 viewBox="0 0 354.3 340.2" style="enable-background:new 0 0 354.3 340.2;" xml:space="preserve">
<style type="text/css">
	.st0{fill:#FFFFFF;}
	.st1{fill:#D3D3D3;}
</style>
<rect class="st0" width="354.3" height="340.2"/>
<path class="st1" d="M177.2,104.1c-36.4,0-66,29.6-66,66s29.6,66,66,66s66-29.6,66-66S213.6,104.1,177.2,104.1z M177.2,225.9
	c-30.8,0-55.8-25-55.8-55.8s25-55.8,55.8-55.8s55.8,25,55.8,55.8S207.9,225.9,177.2,225.9z"/>
<path class="st1" d="M202.7,164.5h-20.4v-20.4c0-2.8-2.3-5.1-5.1-5.1c-2.8,0-5.1,2.3-5.1,5.1v20.4h-20.4c-2.8,0-5.1,2.3-5.1,5.1
	c0,2.8,2.3,5.1,5.1,5.1h20.4v20.4c0,2.8,2.3,5.1,5.1,5.1c2.8,0,5.1-2.3,5.1-5.1v-20.4h20.4c2.8,0,5.1-2.3,5.1-5.1
	C207.8,166.8,205.6,164.5,202.7,164.5z"/>
</svg>
