<svg width="128" height="118" viewBox="0 0 128 118" fill="none" xmlns="http://www.w3.org/2000/svg">
<path d="M58.608 48.8514L57.2455 49.9433C56.8848 49.5697 56.5562 49.2927 56.2599 49.1123C55.97 48.9255 55.548 48.8321 54.994 48.8321C54.3885 48.8321 53.8956 48.9706 53.5156 49.2476C53.1419 49.5182 52.9551 49.8693 52.9551 50.3009C52.9551 50.6745 53.1194 51.0063 53.4479 51.2962C53.7765 51.5796 54.3369 51.8921 55.1293 52.2335C55.9217 52.5685 56.5369 52.8841 56.9749 53.1805C57.4194 53.4704 57.7834 53.7925 58.0669 54.1468C58.3503 54.5011 58.5597 54.8747 58.695 55.2677C58.8367 55.6607 58.9076 56.0762 58.9076 56.5142C58.9076 57.5385 58.5339 58.4114 57.7866 59.1329C57.0458 59.8544 56.1471 60.2152 55.0906 60.2152C54.0599 60.2152 53.1484 59.935 52.356 59.3745C51.5701 58.8076 50.9645 57.9605 50.5393 56.8331L52.2207 56.3596C52.8327 57.7447 53.77 58.4372 55.0327 58.4372C55.6447 58.4372 56.1536 58.2536 56.5594 57.8864C56.9653 57.5192 57.1682 57.0554 57.1682 56.4949C57.1682 56.1599 57.0619 55.8249 56.8493 55.4899C56.6367 55.1485 56.3726 54.8683 56.0569 54.6493C55.7413 54.4302 55.2356 54.1822 54.5398 53.9052C53.8505 53.6217 53.3191 53.3641 52.9454 53.1322C52.5782 52.8938 52.2594 52.6136 51.9888 52.2915C51.7182 51.9629 51.5185 51.6376 51.3897 51.3155C51.2673 50.9934 51.2061 50.6487 51.2061 50.2815C51.2061 49.399 51.5604 48.6485 52.269 48.03C52.9776 47.4052 53.8377 47.0927 54.8491 47.0927C55.519 47.0927 56.1987 47.2377 56.888 47.5276C57.5773 47.8175 58.1506 48.2587 58.608 48.8514ZM60.4537 47.257H62.135V53.1322C62.5989 52.5975 63.0305 52.2109 63.4299 51.9726C63.8357 51.7278 64.3286 51.6054 64.9083 51.6054C65.5848 51.6054 66.1678 51.8663 66.6574 52.3881C67.1534 52.9035 67.4014 53.5219 67.4014 54.2434V59.7997H65.72V54.7169C65.72 54.2144 65.5912 53.8118 65.3335 53.509C65.0823 53.2062 64.7473 53.0548 64.3286 53.0548C63.723 53.0548 63.2044 53.2835 62.7728 53.7409C62.3476 54.1983 62.135 54.7523 62.135 55.403V59.7997H60.4537V47.257ZM69.0538 55.7798C69.0538 54.6911 69.4822 53.7248 70.339 52.8809C71.2022 52.0306 72.1911 51.6054 73.3056 51.6054C74.4522 51.6054 75.454 52.0241 76.3108 52.8616C77.1676 53.6926 77.596 54.6654 77.596 55.7798C77.596 56.9008 77.174 57.8896 76.3301 58.7464C75.4926 59.5968 74.5231 60.0219 73.4215 60.0219C72.2426 60.0219 71.2183 59.6 70.3487 58.7561C69.4854 57.9122 69.0538 56.9201 69.0538 55.7798ZM75.9726 55.7798C75.9726 55.1034 75.7149 54.5172 75.1995 54.0212C74.6842 53.5187 74.0722 53.2674 73.3635 53.2674C72.6356 53.2674 72.0075 53.5219 71.4792 54.0308C70.9574 54.5333 70.6965 55.1356 70.6965 55.8378C70.6965 56.5078 70.9606 57.094 71.4889 57.5965C72.0236 58.099 72.6485 58.3502 73.3635 58.3502C74.0593 58.3502 74.6681 58.0925 75.1899 57.5772C75.7117 57.0618 75.9726 56.4627 75.9726 55.7798ZM78.9488 55.7798C78.9488 54.6911 79.3772 53.7248 80.234 52.8809C81.0972 52.0306 82.0861 51.6054 83.2006 51.6054C84.3472 51.6054 85.349 52.0241 86.2058 52.8616C87.0626 53.6926 87.491 54.6654 87.491 55.7798C87.491 56.9008 87.069 57.8896 86.2251 58.7464C85.3876 59.5968 84.4181 60.0219 83.3165 60.0219C82.1376 60.0219 81.1133 59.6 80.2437 58.7561C79.3804 57.9122 78.9488 56.9201 78.9488 55.7798ZM85.8676 55.7798C85.8676 55.1034 85.6099 54.5172 85.0945 54.0212C84.5792 53.5187 83.9672 53.2674 83.2585 53.2674C82.5306 53.2674 81.9025 53.5219 81.3742 54.0308C80.8524 54.5333 80.5915 55.1356 80.5915 55.8378C80.5915 56.5078 80.8556 57.094 81.3839 57.5965C81.9186 58.099 82.5435 58.3502 83.2585 58.3502C83.9543 58.3502 84.5631 58.0925 85.0849 57.5772C85.6067 57.0618 85.8676 56.4627 85.8676 55.7798ZM89.8294 49.5085H91.5108V51.8276H93.1729V53.3641H91.5108V59.7997H89.8294V53.3641H88.5056V51.8083H89.8294V49.5085ZM102.343 48.8514L100.981 49.9433C100.62 49.5697 100.291 49.2927 99.995 49.1123C99.7051 48.9255 99.2832 48.8321 98.7291 48.8321C98.1236 48.8321 97.6308 48.9706 97.2507 49.2476C96.877 49.5182 96.6902 49.8693 96.6902 50.3009C96.6902 50.6745 96.8545 51.0063 97.183 51.2962C97.5116 51.5796 98.072 51.8921 98.8644 52.2335C99.6568 52.5685 100.272 52.8841 100.71 53.1805C101.155 53.4704 101.519 53.7925 101.802 54.1468C102.085 54.5011 102.295 54.8747 102.43 55.2677C102.572 55.6607 102.643 56.0762 102.643 56.5142C102.643 57.5385 102.269 58.4114 101.522 59.1329C100.781 59.8544 99.8823 60.2152 98.8258 60.2152C97.795 60.2152 96.8835 59.935 96.0911 59.3745C95.3052 58.8076 94.6996 57.9605 94.2745 56.8331L95.9558 56.3596C96.5678 57.7447 97.5051 58.4372 98.7678 58.4372C99.3798 58.4372 99.8887 58.2536 100.295 57.8864C100.7 57.5192 100.903 57.0554 100.903 56.4949C100.903 56.1599 100.797 55.8249 100.584 55.4899C100.372 55.1485 100.108 54.8683 99.7921 54.6493C99.4764 54.4302 98.9707 54.1822 98.275 53.9052C97.5857 53.6217 97.0542 53.3641 96.6806 53.1322C96.3134 52.8938 95.9945 52.6136 95.7239 52.2915C95.4534 51.9629 95.2536 51.6376 95.1248 51.3155C95.0024 50.9934 94.9412 50.6487 94.9412 50.2815C94.9412 49.399 95.2955 48.6485 96.0041 48.03C96.7128 47.4052 97.5728 47.0927 98.5842 47.0927C99.2542 47.0927 99.9338 47.2377 100.623 47.5276C101.312 47.8175 101.886 48.2587 102.343 48.8514ZM104.189 47.257H105.87V53.1322C106.334 52.5975 106.766 52.2109 107.165 51.9726C107.571 51.7278 108.064 51.6054 108.643 51.6054C109.32 51.6054 109.903 51.8663 110.392 52.3881C110.889 52.9035 111.137 53.5219 111.137 54.2434V59.7997H109.455V54.7169C109.455 54.2144 109.326 53.8118 109.069 53.509C108.817 53.2062 108.482 53.0548 108.064 53.0548C107.458 53.0548 106.94 53.2835 106.508 53.7409C106.083 54.1983 105.87 54.7523 105.87 55.403V59.7997H104.189V47.257ZM112.789 55.7798C112.789 54.6911 113.217 53.7248 114.074 52.8809C114.937 52.0306 115.926 51.6054 117.041 51.6054C118.187 51.6054 119.189 52.0241 120.046 52.8616C120.903 53.6926 121.331 54.6654 121.331 55.7798C121.331 56.9008 120.909 57.8896 120.065 58.7464C119.228 59.5968 118.258 60.0219 117.157 60.0219C115.978 60.0219 114.953 59.6 114.084 58.7561C113.221 57.9122 112.789 56.9201 112.789 55.7798ZM119.708 55.7798C119.708 55.1034 119.45 54.5172 118.935 54.0212C118.419 53.5187 117.807 53.2674 117.099 53.2674C116.371 53.2674 115.743 53.5219 115.214 54.0308C114.693 54.5333 114.432 55.1356 114.432 55.8378C114.432 56.5078 114.696 57.094 115.224 57.5965C115.759 58.099 116.384 58.3502 117.099 58.3502C117.794 58.3502 118.403 58.0925 118.925 57.5772C119.447 57.0618 119.708 56.4627 119.708 55.7798ZM123.67 49.5085H125.351V51.8276H127.013V53.3641H125.351V59.7997H123.67V53.3641H122.346V51.8083H123.67V49.5085Z" fill="#242424"/>
<path d="M103.315 25.9397C105.966 25.9397 108.115 23.7907 108.115 21.1397C108.115 18.4888 105.966 16.3397 103.315 16.3397C100.664 16.3397 98.5149 18.4888 98.5149 21.1397C98.5149 23.7907 100.664 25.9397 103.315 25.9397Z" fill="#242424"/>
<path d="M115.485 65.2696C114.484 73.7733 111.59 81.9448 107.017 89.1838C102.444 96.4229 96.3081 102.546 89.0589 107.103C81.8097 111.659 73.6319 114.535 65.1259 115.517C56.62 116.499 48.0021 115.564 39.905 112.78C26.4999 108.172 15.2773 98.7612 8.4046 86.364C1.53186 73.9668 -0.503608 59.4627 2.69127 45.6527C5.88615 31.8426 14.0847 19.7061 25.7038 11.5869C37.3229 3.46764 51.5384 -0.0584168 65.605 1.68961C76.8624 3.14768 87.4414 7.8883 96.0219 15.32C104.602 22.7518 110.805 32.5456 113.855 43.4796C114.599 46.1991 115.141 48.97 115.475 51.7696C115.565 52.5596 116.815 52.5696 116.725 51.7696C115.717 43.1365 112.8 34.836 108.186 27.4703C103.571 20.1047 97.3749 13.8585 90.0465 9.18517C82.7181 4.5118 74.4412 1.52837 65.8164 0.451335C57.1917 -0.625699 48.4353 0.230676 40.1827 2.95833C31.93 5.68598 24.388 10.2165 18.1039 16.2212C11.8198 22.2259 6.9511 29.5541 3.85115 37.6743C0.751188 45.7944 -0.502325 54.5028 0.181555 63.1676C0.865435 71.8324 3.46956 80.2363 7.80498 87.7696C13.5863 97.8095 22.2148 105.91 32.5996 111.046C42.9843 116.182 54.6588 118.124 66.1469 116.625C77.6351 115.127 88.421 110.255 97.1407 102.627C105.86 94.999 112.122 84.9566 115.135 73.7696C115.868 70.9843 116.403 68.1505 116.735 65.2896C116.825 64.4996 115.575 64.4996 115.485 65.2896V65.2696Z" fill="#242424"/>
</svg>
