<svg width="36" height="36" fill="none" xmlns="http://www.w3.org/2000/svg"><path d="M36 18.028V18c0-4.808-1.872-9.328-5.272-12.728C27.328 1.872 22.808 0 18 0A17.882 17.882 0 005.272 5.272C1.872 8.672 0 13.192 0 18v.046a17.881 17.881 0 005.272 12.682C8.672 34.128 13.192 36 18 36a18.25 18.25 0 001.446-.058 17.863 17.863 0 0011.282-5.214 17.881 17.881 0 005.271-12.682l.001-.01v-.008zm-3.448 6.379h-6.095c.601-2.029.861-3.831.945-5.317h6.452a15.79 15.79 0 01-1.302 5.317zM3.45 11.59h6.077a23.034 23.034 0 00-.936 5.39h-6.45c.12-1.88.564-3.7 1.309-5.39zm15.604-2.109V2.35a28.574 28.574 0 014.433 7.131h-4.433zm5.227 2.11a21.01 21.01 0 011.018 5.39h-6.245v-5.39h5.227zm-7.335-2.11h-4.414a27.253 27.253 0 011.493-2.96 28.41 28.41 0 012.92-4.125V9.48zm0 2.11v5.39h-6.244c.103-1.935.499-3.753 1.033-5.39h5.21zm-14.8 7.499h6.452c.103 1.893.457 3.681.946 5.317H3.448a15.79 15.79 0 01-1.302-5.317zm8.564 0h6.236v5.317H11.75a21.11 21.11 0 01-1.04-5.317zm6.236 7.425v7.087a29.174 29.174 0 01-4.394-7.087h4.394zm2.108 0h4.4a27.673 27.673 0 01-1.477 2.942 28.886 28.886 0 01-2.923 4.17v-7.112zm0-2.108V19.09h6.235c-.116 1.905-.511 3.698-1.04 5.317h-5.195zm8.357-7.426a22.71 22.71 0 00-.92-5.39h6.06a15.802 15.802 0 011.307 5.39h-6.447zm4.01-7.5h-5.654a29.093 29.093 0 00-1.67-3.528A31.45 31.45 0 0021.944 2.6a15.792 15.792 0 017.293 4.163 16.012 16.012 0 012.184 2.718zM6.763 6.763a15.794 15.794 0 017.332-4.174 31.46 31.46 0 00-1.859 2.815 28.889 28.889 0 00-1.986 4.077H4.58c.62-.972 1.35-1.883 2.184-2.718zM4.577 26.515h5.695a29.51 29.51 0 001.963 4.045 31.962 31.962 0 001.874 2.854 15.795 15.795 0 01-7.346-4.177 16.012 16.012 0 01-2.186-2.722zm24.66 2.722a15.792 15.792 0 01-7.326 4.172 31.96 31.96 0 001.86-2.842 29.262 29.262 0 001.962-4.052h5.69c-.62.974-1.35 1.886-2.186 2.722z" fill="#7DFFD1"/></svg>